<svg id="Layer_1" data-name="Layer 1" xmlns="http://www.w3.org/2000/svg" viewBox="0 0 279.5 410">
  <defs>
    <style>
      .cls-1{fill:#b6b6b7;}.cls-2{fill:#50b748;}.cls-3{fill:#838383;}.cls-4{fill:#091c3e;}.cls-5{fill:#06c167;}.cls-6{fill:#fff;}.cls-7{fill:#cdfb0a;}
    </style>
  </defs>
  <path class="cls-4"
        d="M299,388.53A7.22,7.22,0,1,0,299.3,403h.16a7.05,7.05,0,0,0,7-7.14v-.25a7.3,7.3,0,0,0-7.46-7.05ZM224.1,388a7.28,7.28,0,0,0-7.05,5.9h14A7.19,7.19,0,0,0,224.1,388Zm-26.57,0a8,8,0,1,0,8,8v-.08a8,8,0,0,0-8-8Z"
        transform="translate(-116.25 -50.97)"/>
  <path class="cls-4"
        d="M116.25,51V461h279.5V51Zm239,152.13c-14.6,30.75-31,57.57-52.24,83.65-29.61,4.51-58.48,3.85-90.3.82l20.75-33.3a362.57,362.57,0,0,0,49.95-.41,338.58,338.58,0,0,0,31.25-51,314,314,0,0,0-24.11-40l20.67-33.05C328.34,152.42,343.92,176.53,355.24,203.1ZM327,336.13l-1.48-6.48,11.15-6.15H341v30.43h-7.3V332.44L327,336.13Zm-96.28,11.81a9.56,9.56,0,0,0,4.76-1v-7.79l7.05-.9v12.38c-1.56,1.31-5.33,3.77-12.22,3.77-10.17,0-17.22-7-17.22-15.66s7-15.58,17.39-15.58a25.19,25.19,0,0,1,11.24,2.13l-1.89,6.64a18.58,18.58,0,0,0-9.1-1.89c-5.74,0-9.68,3.36-9.68,8.78s4.26,9.1,9.68,9.1ZM229.1,196.79a26.9,26.9,0,1,1,26.9,26.9A26.92,26.92,0,0,1,229.1,196.79ZM209,106.9a410.37,410.37,0,0,1,90.3-.82l-20.83,33.3a362.58,362.58,0,0,0-49.95.41,324.8,324.8,0,0,0-31.33,51,360.32,360.32,0,0,0,24.19,40l-20.67,33.05c-17.88-23.62-32.4-46.67-44-73.16A386.78,386.78,0,0,1,209,106.9Zm-2.87,216.68V354h-7.63V323.58Zm-13.2,24.11v6.4H170.79V323.66h7.71v24.11l14.43-.08Zm-12,59.79h-4.67v-3a11.6,11.6,0,0,1-8.37,3.53c-6.81,0-12-4.92-12-12.47V375.66h4.84v19.6c0,5.08,3.36,8.37,7.71,8.37s7.79-3.36,7.79-8.45V375.66H181L181,407.48Zm17,.57a11.34,11.34,0,0,1-8.2-3.44v2.87h-4.51V375.74h4.51V387.3a11.34,11.34,0,0,1,8.2-3.44h1.23a12.11,12.11,0,0,1-1.23,24.19Zm26.57-4a7.88,7.88,0,0,0,6.64-3.36l3.28,2.38a12,12,0,0,1-10,4.92h-.49a12.06,12.06,0,0,1,0-24.11c6.64,0,11.56,5.17,11.56,12.06v1.39H216.88a7.9,7.9,0,0,0,7.63,6.73Zm25.83-15.58h-1.89c-3,0-5.08,2.3-5.08,5.9v13.12h-4.59V384.35h4.35v2.79h.16a6.08,6.08,0,0,1,5.41-3h1.64Zm-.9-47.81V323.58h7.63v17.63a6.81,6.81,0,0,0,13.61,0l.08-17.63h7.63v17.06c0,9-5.82,13.78-14.43,13.78S249.44,349.74,249.44,340.64ZM284,381.15H267.73v7.71h15.83v5.25H267.73V402H284v5.49H261.66V375.66H284v5.49Zm2.71-57.57H309V330H294.3v5.49h11.89v6H294.3l.08,6.15h15.09V354H286.75V323.58h-.08Zm25.59,83.9h-6v-2.13a11.92,11.92,0,0,1-7.46,2.71h-.49a12.33,12.33,0,0,1,.57-24.6,11.75,11.75,0,0,1,7.46,2.71V384l5.9-.08v23.54Zm19.68-18.12H325.3v11c0,1.23.9,1.8,2.21,1.8h4.43v5.33h-6.4c-4,0-6.23-2.46-6.23-5.66V389.35H314.8V384h4.51v-6.64h5.9V384h6.64Zm13.61,18.78c-7.38,0-11-3.28-11.73-8.12h5.9c.74,2.62,2.71,3.36,6.15,3.36,2.62,0,4.35-.9,4.35-2.38,0-.9-.66-1.56-2.87-2l-5.66-1.31c-5.17-1.07-7.55-3.28-7.55-6.73,0-4.92,4.35-7.46,10.5-7.46,7.14,0,10.66,3.2,11,8.12h-5.9c-.57-2.62-2.62-3.36-5.41-3.36-2.54,0-4,.82-4,2.3,0,1.07,1,1.64,3.85,2.13l5.08,1.07c4.76,1.07,7.05,3.44,7.05,6.64-.08,4.43-3.94,7.71-10.74,7.71Z"
        transform="translate(-116.25 -50.97)"/>
  <path class="cls-5"
        d="M325.22,377.38h-5.9V384H314.8v5.33h4.51v12.47c0,3.12,2.21,5.66,6.23,5.66h6.4v-5.33h-4.43c-1.39,0-2.21-.57-2.21-1.8v-11h6.64V384H325.3l-.08-6.64Zm-63.48,30.1H284v-5.41H267.73v-7.87h15.83v-5.25H267.73v-7.79H284v-5.41H261.74Zm44.53-21.24a11.3,11.3,0,0,0-7.46-2.71A12.42,12.42,0,0,0,287,396.41a12.28,12.28,0,0,0,11.24,11.73h.49a11.75,11.75,0,0,0,7.46-2.71v2.13h5.9V384.1l-5.9.08.08,2.05Zm.08,9.51v.08a7,7,0,0,1-7,7.14h-.16a7.22,7.22,0,1,1,7.05-7.38l.08.16Zm42.81-2.05-5.08-1.07c-2.87-.57-3.85-1.07-3.85-2.13,0-1.48,1.48-2.3,4-2.3,2.79,0,4.92.74,5.41,3.36h5.9c-.33-4.92-3.85-8.12-11-8.12-6.15,0-10.5,2.54-10.5,7.46,0,3.44,2.38,5.66,7.55,6.73l5.66,1.31c2.21.41,2.87,1.07,2.87,2,0,1.48-1.64,2.38-4.35,2.38-3.44,0-5.33-.74-6.15-3.36h-5.9c.74,4.92,4.35,8.12,11.73,8.12,6.81,0,10.66-3.28,10.66-7.79.08-3.12-2.21-5.49-7-6.56Z"
        transform="translate(-116.25 -50.97)"/>
  <path class="cls-6"
        d="M243.29,387.22h-.16v-2.79h-4.35v23.13h4.59V394.44c0-3.61,2.13-5.9,5.08-5.9h1.89v-4.26H248.7A6.17,6.17,0,0,0,243.29,387.22ZM235.66,396c0-6.89-4.92-12.06-11.56-12.06a12.06,12.06,0,0,0,0,24.11h.49a12.09,12.09,0,0,0,10-4.92l-3.28-2.38a8.2,8.2,0,0,1-6.64,3.36,7.69,7.69,0,0,1-7.63-6.64h18.7l-.08-1.48ZM217,393.86a7.12,7.12,0,0,1,14,0Zm-40.84,1.48c0,5.08-3.36,8.45-7.79,8.45s-7.71-3.28-7.71-8.37v-19.6h-4.84v19.85c0,7.46,5.25,12.47,12,12.47a11.46,11.46,0,0,0,8.37-3.53v3h4.67V375.9h-4.76l.08,19.44Zm22.88-11.4h-1.23a11.62,11.62,0,0,0-8.2,3.44V375.82h-4.51v31.66h4.51v-2.87a11.48,11.48,0,0,0,8.2,3.44,12.09,12.09,0,0,0,12.63-11.48,12,12,0,0,0-11.4-12.63ZM205.56,396a8,8,0,1,1-8-8A8,8,0,0,1,205.56,396Zm72.83-55.36V323.58h-7.63l-.08,17.63a6.81,6.81,0,0,1-13.61,0V323.58h-7.63v17.06c0,9,5.82,13.78,14.43,13.78S278.39,349.74,278.39,340.64Zm31,7.05H294.3v-6.15h11.89v-6.07H294.3V330H309v-6.4H286.67V354h22.72v-6.32Zm-78.73-17.63a20.39,20.39,0,0,1,9.1,1.89l1.89-6.64a25.2,25.2,0,0,0-11.24-2.13c-10.33,0-17.39,6.89-17.39,15.58s7,15.66,17.22,15.66c6.89,0,10.66-2.46,12.22-3.77V338.26l-7.05.9V347a11.77,11.77,0,0,1-4.76,1c-5.41,0-9.76-3.77-9.76-9.19s4-8.69,9.76-8.69ZM341.13,354V323.58h-4.35l-11.24,6.15,1.48,6.4,6.73-3.53V354h7.38ZM170.79,323.58V354h22.14v-6.32H178.5V323.58Zm27.72,0h7.63V354h-7.63Z"
        transform="translate(-116.25 -50.97)"/>
  <path class="cls-7"
        d="M314.72,202.94a345.39,345.39,0,0,1-31.25,51,376,376,0,0,1-49.95.41l-20.75,33.3c31.82,3,60.69,3.77,90.3-.82,21.24-26.08,37.64-52.9,52.24-83.65-11.32-26.49-26.82-50.68-44-73.32l-20.67,33.05A317.27,317.27,0,0,1,314.72,202.94Zm-93.25,27.8a360.32,360.32,0,0,1-24.19-40,332.51,332.51,0,0,1,31.33-51,376,376,0,0,1,49.95-.41L299.38,106a410.42,410.42,0,0,0-90.3.82,386.78,386.78,0,0,0-52.24,83.82c11.56,26.41,26.08,49.54,44,73.16l20.67-33.05Z"
        transform="translate(-116.25 -50.97)"/>
  <path class="cls-6" d="M256,223.69a26.9,26.9,0,1,0-26.9-26.9A26.92,26.92,0,0,0,256,223.69Z"
        transform="translate(-116.25 -50.97)"/>
</svg>
